<svg width="64" height="64" viewBox="0 0 64 64" fill="none" xmlns="http://www.w3.org/2000/svg">
<path fill-rule="evenodd" clip-rule="evenodd" d="M32.5 3L54 23.6004V61.3849H11V23.6004L32.5 3ZM13 25.0272V36V38.5V41.3849V59.3849H52V25.0272H13ZM50.5109 23.0272H14.4891L32.5 5.76989L50.5109 23.0272Z" fill="black"/>
<path fill-rule="evenodd" clip-rule="evenodd" d="M25 27.3849H40V41.3849H25V27.3849ZM27 29.3849V32.8673L27.9431 29.3849H27ZM30.0152 29.3849L27.3069 39.3849H31.5V29.3849H30.0152ZM33.5 29.3849V39.3849H37.6931L34.9848 29.3849H33.5ZM37.0569 29.3849L38 32.8673V29.3849H37.0569Z" fill="black"/>
<path fill-rule="evenodd" clip-rule="evenodd" d="M33 46.3849C30.2386 46.3849 28 48.6235 28 51.3849V59.3849H26V51.3849C26 47.519 29.134 44.3849 33 44.3849C36.866 44.3849 40 47.519 40 51.3849V59.3849H38V51.3849C38 48.6235 35.7614 46.3849 33 46.3849Z" fill="black"/>
</svg>
