<svg width="64" height="64" viewBox="0 0 64 64" fill="none" xmlns="http://www.w3.org/2000/svg">
<path fill-rule="evenodd" clip-rule="evenodd" d="M15.6428 23.0562C17.8382 17.0189 23.5759 13 30 13H34C40.4241 13 46.1618 17.0189 48.3572 23.0562L48.7004 24H49C51.2091 24 53 25.7909 53 28V46.5C53 47.6046 52.1046 48.5 51 48.5C51 50.433 49.433 52 47.5 52C45.567 52 44 50.433 44 48.5H20C20 50.433 18.433 52 16.5 52C14.567 52 13 50.433 13 48.5C11.8954 48.5 11 47.6046 11 46.5V28C11 25.7909 12.7909 24 15 24H15.2996L15.6428 23.0562ZM17.4198 24.0218C19.4316 24.2316 21 25.9326 21 28V35.5C21 36.0523 20.5523 36.5 20 36.5C19.4477 36.5 19 36.0523 19 35.5V28C19 26.8954 18.1046 26 17 26H15C13.8954 26 13 26.8954 13 28V46.5H19V38C19 37.4477 19.4477 37 20 37C20.5523 37 21 37.4477 21 38V38.433C28.0202 35.4119 35.9798 35.4119 43 38.433V28C43 25.9326 44.5684 24.2316 46.5802 24.0218L46.4776 23.7397C44.5697 18.4927 39.5831 15 34 15H30C24.4169 15 19.4303 18.4927 17.5224 23.7397L17.4198 24.0218ZM43 40.6262C36.0341 37.3475 27.9659 37.3475 21 40.6262V46.5H43V43.75C43 43.1977 43.4477 42.75 44 42.75C44.5523 42.75 45 43.1977 45 43.75V46.5H51V28C51 26.8954 50.1046 26 49 26H47C45.8954 26 45 26.8954 45 28V40.9375C45 41.4898 44.5523 41.9375 44 41.9375C43.4477 41.9375 43 41.4898 43 40.9375V40.6262ZM46 48.5C46 49.3284 46.6716 50 47.5 50C48.3284 50 49 49.3284 49 48.5H46ZM18 48.5H15C15 49.3284 15.6716 50 16.5 50C17.3284 50 18 49.3284 18 48.5Z" fill="black"/>
</svg>
