<?xml version="1.0" encoding="UTF-8" standalone="no" ?>
<!DOCTYPE svg PUBLIC "-//W3C//DTD SVG 1.1//EN" "http://www.w3.org/Graphics/SVG/1.1/DTD/svg11.dtd">
<svg xmlns="http://www.w3.org/2000/svg" xmlns:xlink="http://www.w3.org/1999/xlink" version="1.1" width="45" height="45" viewBox="0 0 400 400" xml:space="preserve">
<desc>Created with Fabric.js 3.6.2</desc>
<defs>
</defs>
<g transform="matrix(0.39 0 0 0.39 200 217.93)" id="XMLID_56_"  >
<path style="stroke: rgb(0,0,0); stroke-width: 10; stroke-dasharray: none; stroke-linecap: round; stroke-dashoffset: 0; stroke-linejoin: round; stroke-miterlimit: 10; fill: none; fill-rule: nonzero; opacity: 1;"  transform=" translate(-256, -301.9)" d="M 325.4 496 H 186.6 c -16.6 0 -30 -13.4 -30 -30 V 137.8 c 0 -16.6 13.4 -30 30 -30 h 138.8 c 16.6 0 30 13.4 30 30 V 466 C 355.4 482.6 342 496 325.4 496 z" stroke-linecap="round" />
</g>
<g transform="matrix(0.39 0 0 0.39 200 184.67)" id="XMLID_57_"  >
<rect style="stroke: rgb(0,0,0); stroke-width: 10; stroke-dasharray: none; stroke-linecap: round; stroke-dashoffset: 0; stroke-linejoin: round; stroke-miterlimit: 10; fill: none; fill-rule: nonzero; opacity: 1;"  x="-69.9" y="-56.95" rx="0" ry="0" width="139.8" height="113.9" />
</g>
<g transform="matrix(0.39 0 0 0.39 200 152.54)" id="XMLID_58_"  >
<line style="stroke: rgb(0,0,0); stroke-width: 10; stroke-dasharray: none; stroke-linecap: round; stroke-dashoffset: 0; stroke-linejoin: round; stroke-miterlimit: 10; fill: none; fill-rule: nonzero; opacity: 1;"  x1="-27.5" y1="0" x2="27.5" y2="0" />
</g>
<g transform="matrix(0.39 0 0 0.39 176.56 223.95)" id="XMLID_60_"  >
<path style="stroke: rgb(0,0,0); stroke-width: 10; stroke-dasharray: none; stroke-linecap: round; stroke-dashoffset: 0; stroke-linejoin: round; stroke-miterlimit: 10; fill: none; fill-rule: nonzero; opacity: 1;"  transform=" translate(-196, -317.3)" d="M 207.6 330.7 h -23.2 c -3.8 0 -6.8 -3.1 -6.8 -6.8 v -13.2 c 0 -3.8 3.1 -6.8 6.8 -6.8 h 23.2 c 3.8 0 6.8 3.1 6.8 6.8 v 13.2 C 214.5 327.6 211.4 330.7 207.6 330.7 z" stroke-linecap="round" />
</g>
<g transform="matrix(0.39 0 0 0.39 176.56 242.03)" id="XMLID_61_"  >
<path style="stroke: rgb(0,0,0); stroke-width: 10; stroke-dasharray: none; stroke-linecap: round; stroke-dashoffset: 0; stroke-linejoin: round; stroke-miterlimit: 10; fill: none; fill-rule: nonzero; opacity: 1;"  transform=" translate(-196, -363.6)" d="M 207.6 377 h -23.2 c -3.8 0 -6.8 -3.1 -6.8 -6.8 v -13.2 c 0 -3.8 3.1 -6.8 6.8 -6.8 h 23.2 c 3.8 0 6.8 3.1 6.8 6.8 v 13.2 C 214.5 373.9 211.4 377 207.6 377 z" stroke-linecap="round" />
</g>
<g transform="matrix(0.39 0 0 0.39 176.56 260.12)" id="XMLID_62_"  >
<path style="stroke: rgb(0,0,0); stroke-width: 10; stroke-dasharray: none; stroke-linecap: round; stroke-dashoffset: 0; stroke-linejoin: round; stroke-miterlimit: 10; fill: none; fill-rule: nonzero; opacity: 1;"  transform=" translate(-196, -409.9)" d="M 207.6 423.3 h -23.2 c -3.8 0 -6.8 -3.1 -6.8 -6.8 v -13.2 c 0 -3.8 3.1 -6.8 6.8 -6.8 h 23.2 c 3.8 0 6.8 3.1 6.8 6.8 v 13.2 C 214.5 420.2 211.4 423.3 207.6 423.3 z" stroke-linecap="round" />
</g>
<g transform="matrix(0.39 0 0 0.39 176.56 278.2)" id="XMLID_63_"  >
<path style="stroke: rgb(0,0,0); stroke-width: 10; stroke-dasharray: none; stroke-linecap: round; stroke-dashoffset: 0; stroke-linejoin: round; stroke-miterlimit: 10; fill: none; fill-rule: nonzero; opacity: 1;"  transform=" translate(-196, -456.2)" d="M 207.6 469.6 h -23.2 c -3.8 0 -6.8 -3.1 -6.8 -6.8 v -13.2 c 0 -3.8 3.1 -6.8 6.8 -6.8 h 23.2 c 3.8 0 6.8 3.1 6.8 6.8 v 13.2 C 214.5 466.5 211.4 469.6 207.6 469.6 z" stroke-linecap="round" />
</g>
<g transform="matrix(0.39 0 0 0.39 200 223.95)" id="XMLID_68_"  >
<path style="stroke: rgb(0,0,0); stroke-width: 10; stroke-dasharray: none; stroke-linecap: round; stroke-dashoffset: 0; stroke-linejoin: round; stroke-miterlimit: 10; fill: none; fill-rule: nonzero; opacity: 1;"  transform=" translate(-256, -317.3)" d="M 267.6 330.7 h -23.2 c -3.8 0 -6.8 -3.1 -6.8 -6.8 v -13.2 c 0 -3.8 3.1 -6.8 6.8 -6.8 h 23.2 c 3.8 0 6.8 3.1 6.8 6.8 v 13.2 C 274.4 327.6 271.4 330.7 267.6 330.7 z" stroke-linecap="round" />
</g>
<g transform="matrix(0.39 0 0 0.39 200 242.03)" id="XMLID_67_"  >
<path style="stroke: rgb(0,0,0); stroke-width: 10; stroke-dasharray: none; stroke-linecap: round; stroke-dashoffset: 0; stroke-linejoin: round; stroke-miterlimit: 10; fill: none; fill-rule: nonzero; opacity: 1;"  transform=" translate(-256, -363.6)" d="M 267.6 377 h -23.2 c -3.8 0 -6.8 -3.1 -6.8 -6.8 v -13.2 c 0 -3.8 3.1 -6.8 6.8 -6.8 h 23.2 c 3.8 0 6.8 3.1 6.8 6.8 v 13.2 C 274.4 373.9 271.4 377 267.6 377 z" stroke-linecap="round" />
</g>
<g transform="matrix(0.39 0 0 0.39 200 260.12)" id="XMLID_66_"  >
<path style="stroke: rgb(0,0,0); stroke-width: 10; stroke-dasharray: none; stroke-linecap: round; stroke-dashoffset: 0; stroke-linejoin: round; stroke-miterlimit: 10; fill: none; fill-rule: nonzero; opacity: 1;"  transform=" translate(-256, -409.9)" d="M 267.6 423.3 h -23.2 c -3.8 0 -6.8 -3.1 -6.8 -6.8 v -13.2 c 0 -3.8 3.1 -6.8 6.8 -6.8 h 23.2 c 3.8 0 6.8 3.1 6.8 6.8 v 13.2 C 274.4 420.2 271.4 423.3 267.6 423.3 z" stroke-linecap="round" />
</g>
<g transform="matrix(0.39 0 0 0.39 200 278.2)" id="XMLID_65_"  >
<path style="stroke: rgb(0,0,0); stroke-width: 10; stroke-dasharray: none; stroke-linecap: round; stroke-dashoffset: 0; stroke-linejoin: round; stroke-miterlimit: 10; fill: none; fill-rule: nonzero; opacity: 1;"  transform=" translate(-256, -456.2)" d="M 267.6 469.6 h -23.2 c -3.8 0 -6.8 -3.1 -6.8 -6.8 v -13.2 c 0 -3.8 3.1 -6.8 6.8 -6.8 h 23.2 c 3.8 0 6.8 3.1 6.8 6.8 v 13.2 C 274.4 466.5 271.4 469.6 267.6 469.6 z" stroke-linecap="round" />
</g>
<g transform="matrix(0.39 0 0 0.39 223.44 223.95)" id="XMLID_74_"  >
<path style="stroke: rgb(0,0,0); stroke-width: 10; stroke-dasharray: none; stroke-linecap: round; stroke-dashoffset: 0; stroke-linejoin: round; stroke-miterlimit: 10; fill: none; fill-rule: nonzero; opacity: 1;"  transform=" translate(-316, -317.3)" d="M 327.6 330.7 h -23.2 c -3.8 0 -6.8 -3.1 -6.8 -6.8 v -13.2 c 0 -3.8 3.1 -6.8 6.8 -6.8 h 23.2 c 3.8 0 6.8 3.1 6.8 6.8 v 13.2 C 334.4 327.6 331.4 330.7 327.6 330.7 z" stroke-linecap="round" />
</g>
<g transform="matrix(0.39 0 0 0.39 223.44 242.03)" id="XMLID_72_"  >
<path style="stroke: rgb(0,0,0); stroke-width: 10; stroke-dasharray: none; stroke-linecap: round; stroke-dashoffset: 0; stroke-linejoin: round; stroke-miterlimit: 10; fill: none; fill-rule: nonzero; opacity: 1;"  transform=" translate(-316, -363.6)" d="M 327.6 377 h -23.2 c -3.8 0 -6.8 -3.1 -6.8 -6.8 v -13.2 c 0 -3.8 3.1 -6.8 6.8 -6.8 h 23.2 c 3.8 0 6.8 3.1 6.8 6.8 v 13.2 C 334.4 373.9 331.4 377 327.6 377 z" stroke-linecap="round" />
</g>
<g transform="matrix(0.39 0 0 0.39 223.44 260.12)" id="XMLID_71_"  >
<path style="stroke: rgb(0,0,0); stroke-width: 10; stroke-dasharray: none; stroke-linecap: round; stroke-dashoffset: 0; stroke-linejoin: round; stroke-miterlimit: 10; fill: none; fill-rule: nonzero; opacity: 1;"  transform=" translate(-316, -409.9)" d="M 327.6 423.3 h -23.2 c -3.8 0 -6.8 -3.1 -6.8 -6.8 v -13.2 c 0 -3.8 3.1 -6.8 6.8 -6.8 h 23.2 c 3.8 0 6.8 3.1 6.8 6.8 v 13.2 C 334.4 420.2 331.4 423.3 327.6 423.3 z" stroke-linecap="round" />
</g>
<g transform="matrix(0.39 0 0 0.39 223.44 278.2)" id="XMLID_70_"  >
<path style="stroke: rgb(0,0,0); stroke-width: 10; stroke-dasharray: none; stroke-linecap: round; stroke-dashoffset: 0; stroke-linejoin: round; stroke-miterlimit: 10; fill: none; fill-rule: nonzero; opacity: 1;"  transform=" translate(-316, -456.2)" d="M 327.6 469.6 h -23.2 c -3.8 0 -6.8 -3.1 -6.8 -6.8 v -13.2 c 0 -3.8 3.1 -6.8 6.8 -6.8 h 23.2 c 3.8 0 6.8 3.1 6.8 6.8 v 13.2 C 334.4 466.5 331.4 469.6 327.6 469.6 z" stroke-linecap="round" />
</g>
<g transform="matrix(0.39 0 0 0.39 175.94 124.18)" id="XMLID_75_"  >
<path style="stroke: rgb(0,0,0); stroke-width: 10; stroke-dasharray: none; stroke-linecap: round; stroke-dashoffset: 0; stroke-linejoin: round; stroke-miterlimit: 10; fill: none; fill-rule: nonzero; opacity: 1;"  transform=" translate(-194.4, -61.9)" d="M 211.2 107.8 h -33.6 v -75 c 0 -9.3 7.5 -16.8 16.8 -16.8 h 0 c 9.3 0 16.8 7.5 16.8 16.8 V 107.8 z" stroke-linecap="round" />
</g>
</svg>