<svg width="64" height="64" viewBox="0 0 64 64" fill="none" xmlns="http://www.w3.org/2000/svg">
<path fill-rule="evenodd" clip-rule="evenodd" d="M57.7123 4.04108C58.3921 4.16319 58.9989 4.54554 59.5542 5.1008C60.1094 5.65607 60.4918 6.26286 60.6139 6.94264C60.7383 7.63534 60.5674 8.26185 60.2842 8.79861C60.01 9.31827 59.6093 9.79536 59.2016 10.2293C58.9247 10.5239 58.6083 10.8355 58.2951 11.1439C58.1518 11.285 58.0092 11.4254 57.8715 11.5632L34.8994 34.5353C35.6057 35.6043 36.5474 37.1751 37.2611 38.8142C37.7062 39.8366 38.0807 40.9262 38.2401 41.9618C38.3966 42.9785 38.365 44.0701 37.8479 44.9925C36.9211 46.7174 35.9278 49.7367 35.0204 52.5578C34.9747 52.6998 34.9293 52.8411 34.8841 52.9817C34.4882 54.2139 34.1129 55.3818 33.7797 56.316C33.5941 56.8361 33.4146 57.3038 33.2452 57.6804C33.0957 58.0125 32.8948 58.4152 32.6306 58.6794C32.1378 59.1722 31.5048 59.264 30.9832 59.215C30.4739 59.1671 29.9583 58.9799 29.4967 58.7631C28.8664 58.4669 28.2124 58.0547 27.6203 57.6418C26.4825 58.7637 24.6292 59.2725 23.109 58.3433C22.5168 57.9813 22.0289 57.6517 21.6453 57.37C20.5294 58.7891 19.6261 59.9048 19.1689 60.3621L18.876 60.655H18.4618C17.6303 60.655 15.9191 60.2092 14.3892 58.6794L13.8095 58.0997L14.2643 57.4175C14.732 56.716 15.1836 56.0626 15.6388 55.4247C14.2294 54.732 12.9558 53.8125 11.8643 52.7122C10.7987 51.6382 9.90645 50.3919 9.2303 49.0162C8.5924 49.4713 7.93895 49.923 7.23742 50.3907L6.55531 50.8454L5.97562 50.2658C4.44574 48.7359 4 47.0247 4 46.1932L4 45.779L4.29289 45.4861C4.75015 45.0288 5.86589 44.1255 7.28499 43.0096C7.00328 42.6261 6.67366 42.1382 6.31167 41.546C5.38252 40.0258 5.89131 38.1725 7.01313 37.0347C6.6003 36.4426 6.18803 35.7885 5.89191 35.1582C5.67506 34.6967 5.48785 34.181 5.43999 33.6717C5.39097 33.1501 5.48276 32.5172 5.97562 32.0243C6.23975 31.7602 6.64243 31.5593 6.97457 31.4098C7.35122 31.2403 7.81887 31.0608 8.33901 30.8753C9.27312 30.5421 10.441 30.1668 11.6732 29.7709C11.8138 29.7257 11.9552 29.6803 12.0971 29.6346C14.9182 28.7272 17.9374 27.734 19.6623 26.8071C20.5847 26.29 21.6764 26.2584 22.6932 26.4149C23.7287 26.5743 24.8184 26.9488 25.8407 27.3939C27.4798 28.1075 29.0507 29.0492 30.1197 29.7556L42.7929 17.0824C43.1834 16.6919 43.8166 16.6919 44.2071 17.0824C44.5976 17.4729 44.5976 18.1061 44.2071 18.4966L31.655 31.0487L33.6063 32.9999L54.0674 12.5388L52.1162 10.5876L48.7071 13.9966C48.3166 14.3872 47.6834 14.3872 47.2929 13.9966C46.9024 13.6061 46.9024 12.9729 47.2929 12.5824L53.0918 6.78352C53.2296 6.64575 53.37 6.50316 53.5111 6.35989C53.8194 6.04671 54.1311 5.73023 54.4257 5.45341C54.8596 5.04571 55.3367 4.64497 55.8564 4.3708C56.3931 4.08762 57.0196 3.91665 57.7123 4.04108ZM53.5304 9.17335L55.4816 11.1246L56.4572 10.149C56.6219 9.98434 56.7785 9.83015 56.9282 9.68278C57.2245 9.39113 57.4937 9.12616 57.744 8.8598C58.1165 8.46336 58.3687 8.14307 58.5153 7.86536C58.6528 7.60476 58.6701 7.4339 58.6454 7.29624C58.6184 7.14565 58.514 6.88909 58.14 6.51502C57.7659 6.14094 57.5093 6.03662 57.3587 6.00957C57.2211 5.98484 57.0502 6.00222 56.7896 6.13971C56.5119 6.28623 56.1916 6.5385 55.7952 6.91098C55.5288 7.16125 55.2638 7.43046 54.9722 7.72678C54.8248 7.87649 54.6706 8.03313 54.506 8.19774L53.5304 9.17335ZM32.8382 35.0604L29.5946 31.8167C28.6487 31.1535 26.8738 30.025 25.0424 29.2277C24.1027 28.8186 23.1889 28.5147 22.3889 28.3916C22.3408 28.3842 22.2934 28.3775 22.247 28.3715L27.5698 33.6943C27.5778 33.7021 27.5857 33.71 27.5934 33.718L30.9369 37.0615C30.945 37.0693 30.9529 37.0772 30.9606 37.0852L36.2835 42.408C36.2775 42.3615 36.2708 42.3142 36.2634 42.266C36.1402 41.4661 35.8364 40.5523 35.4273 39.6126C34.6299 37.7812 33.5015 36.0063 32.8382 35.0604ZM34.824 43.777L33.5935 42.5465C33.5584 42.5983 33.5179 42.6476 33.472 42.6935C32.629 43.5365 31.3672 45.0228 29.911 46.8223C29.5636 47.2516 28.934 47.318 28.5046 46.9706C28.0753 46.6232 28.0089 45.9935 28.3563 45.5642C29.809 43.7689 31.1311 42.206 32.0578 41.2793C32.1037 41.2334 32.153 41.1929 32.2048 41.1578L30.3572 39.3102C27.0549 43.7966 24.6467 46.9463 22.7502 49.3964C22.2072 50.098 21.7075 50.7404 21.2418 51.3392C19.9655 52.9801 18.9443 54.2931 17.9831 55.5985C17.4527 56.3188 16.9421 57.0349 16.4199 57.7988C17.0706 58.2827 17.6806 58.5062 18.0752 58.5985C18.614 57.981 19.5344 56.8259 20.6995 55.3343C21.3256 54.5328 21.998 53.6659 22.7023 52.7578C23.4186 51.8343 24.1679 50.8682 24.9353 49.8848C25.2751 49.4494 25.9035 49.3719 26.3389 49.7116C26.7743 50.0514 26.8518 50.6798 26.512 51.1152C25.765 52.0725 25.009 53.0471 24.2849 53.9807C23.7971 54.6095 23.3239 55.2196 22.8775 55.7933C23.193 56.0228 23.6149 56.3085 24.152 56.6368C24.811 57.0396 25.9449 56.7565 26.4904 55.878L26.4912 55.8767L26.5786 55.7364L26.5794 55.7352C28.6931 52.3541 32.583 46.9118 34.824 43.777ZM28.9267 37.8797L28.5565 37.5095L14.0165 51.9831C14.8635 52.7058 15.8128 53.313 16.8414 53.7814C17.6862 52.6529 18.5973 51.4815 19.6781 50.0919C20.1411 49.4967 20.6353 48.8613 21.1687 48.1722C23.0912 45.6884 25.5426 42.4818 28.9267 37.8797ZM12.6081 50.5631L27.1423 36.0953L26.7753 35.7283C22.1732 39.1123 18.9666 41.5637 16.4828 43.4863C15.7936 44.0197 15.1583 44.5139 14.563 44.9769C13.1735 46.0576 12.0021 46.9687 10.8735 47.8136C11.3282 48.8117 11.9134 49.7353 12.6081 50.5631ZM25.3448 34.2978L23.4972 32.4502C23.4621 32.502 23.4216 32.5513 23.3757 32.5972C22.1299 33.8429 19.7136 35.8218 17.0941 37.8949C15.3895 39.2439 13.5698 40.6553 11.8919 41.9567C10.9791 42.6648 10.1082 43.3403 9.32065 43.9555C7.82908 45.1206 6.67397 46.041 6.05651 46.5798C6.14875 46.9743 6.3723 47.5843 6.85618 48.2351C7.62012 47.7128 8.33617 47.2022 9.05643 46.6719C10.3619 45.7106 11.6749 44.6894 13.3159 43.413C13.9146 42.9474 14.557 42.4478 15.2586 41.9047C17.7086 40.0083 20.8584 37.6 25.3448 34.2978ZM22.1084 31.0614L20.8779 29.8309C17.7432 32.072 12.3008 35.9619 8.9198 38.0756L8.77832 38.1637L8.77702 38.1645C7.89843 38.7101 7.61538 39.844 8.01816 40.5029C8.34644 41.0401 8.63219 41.4619 8.86165 41.7774C9.44088 41.3267 10.0511 40.8534 10.6798 40.3658C12.3518 39.0689 14.1546 37.6706 15.8529 36.3266C18.4936 34.2367 20.8131 32.3313 21.9615 31.183C22.0074 31.1371 22.0566 31.0966 22.1084 31.0614ZM17.1191 30.0552C15.6867 30.5772 14.1346 31.0802 12.7096 31.5386C12.5682 31.584 12.428 31.6291 12.2891 31.6737C11.0484 32.0724 9.91301 32.4372 9.01099 32.759C8.5093 32.938 8.09981 33.0966 7.79527 33.2337C7.59487 33.3239 7.48231 33.3866 7.42774 33.4188C7.42775 33.4354 7.42863 33.4571 7.43121 33.4846C7.44798 33.663 7.52825 33.9378 7.70208 34.3078C7.93464 34.8028 8.27664 35.3491 8.64627 35.8799C11.1155 34.2891 14.3992 31.9875 17.1191 30.0552ZM34.5998 47.5359C32.6675 50.2558 30.3659 53.5395 28.775 56.0087C29.3058 56.3783 29.8522 56.7203 30.3472 56.9529C30.7172 57.1267 30.992 57.207 31.1704 57.2238C31.1979 57.2263 31.2195 57.2272 31.2362 57.2272C31.2683 57.1727 31.3311 57.0601 31.4213 56.8597C31.5583 56.5552 31.717 56.1457 31.896 55.644C32.2177 54.7419 32.5826 53.6066 32.9813 52.3658C33.0259 52.2269 33.071 52.0867 33.1164 51.9454C33.5748 50.5203 34.0778 48.9683 34.5998 47.5359Z" fill="black"/>
</svg>
