<svg width="64" height="64" viewBox="0 0 64 64" fill="none" xmlns="http://www.w3.org/2000/svg">
<path fill-rule="evenodd" clip-rule="evenodd" d="M24 8.5V16.5H53V8.5H24ZM22 8.5C22 7.39543 22.8954 6.5 24 6.5H53C54.1046 6.5 55 7.39543 55 8.5V11.5H55.5C58.2614 11.5 60.5 13.7386 60.5 16.5V25.8C60.5 28.1385 58.8791 30.1647 56.5976 30.678L42.8415 33.7732C41.4726 34.0812 40.5 35.2969 40.5 36.7V37.5C42.1569 37.5 43.5 38.8431 43.5 40.5V51.375C43.5 52.4707 42.8287 53.4095 41.875 53.8028V54.375C41.875 55.8247 40.6997 57 39.25 57C37.8003 57 36.625 55.8247 36.625 54.375V53.8028C35.6713 53.4095 35 52.4707 35 51.375V40.5C35 38.8431 36.3431 37.5 38 37.5H38.5V36.7C38.5 34.3615 40.1209 32.3353 42.4024 31.822L56.1585 28.7268C57.5274 28.4188 58.5 27.2031 58.5 25.8V16.5C58.5 14.8431 57.1569 13.5 55.5 13.5H55V16.5C55 17.6046 54.1046 18.5 53 18.5H24C22.8954 18.5 22 17.6046 22 16.5V8.5ZM38.625 54V54.375C38.625 54.7202 38.9048 55 39.25 55C39.5952 55 39.875 54.7202 39.875 54.375V54H38.625ZM26 9.5C26.5523 9.5 27 9.94772 27 10.5V14C27 14.5523 26.5523 15 26 15C25.4477 15 25 14.5523 25 14V10.5C25 9.94772 25.4477 9.5 26 9.5ZM51 9.5C51.5523 9.5 52 9.94772 52 10.5V14C52 14.5523 51.5523 15 51 15C50.4477 15 50 14.5523 50 14V10.5C50 9.94772 50.4477 9.5 51 9.5ZM38 39.5C37.4477 39.5 37 39.9477 37 40.5V51.375C37 51.7202 37.2798 52 37.625 52H40.875C41.2202 52 41.5 51.7202 41.5 51.375V40.5C41.5 39.9477 41.0523 39.5 40.5 39.5H38Z" fill="black"/>
<path fill-rule="evenodd" clip-rule="evenodd" d="M4 7C4 5.89543 4.89543 5 6 5H17C18.1046 5 19 5.89543 19 7V35C19 36.1046 18.1046 37 17 37V53.5C17 56.5376 14.5376 59 11.5 59C8.46243 59 6 56.5376 6 53.5V37C4.89543 37 4 36.1046 4 35V7ZM6 7.5V27H17V7.5H15.75V19C15.75 19.5523 15.3023 20 14.75 20C14.1977 20 13.75 19.5523 13.75 19V7.5H12.5V18.5C12.5 19.0523 12.0523 19.5 11.5 19.5C10.9477 19.5 10.5 19.0523 10.5 18.5V7.5H9.25V19C9.25 19.5523 8.80228 20 8.25 20C7.69772 20 7.25 19.5523 7.25 19V7.5L6 7.5ZM6 29.5V34.5C7.10457 34.5 8 35.3954 8 36.5V53C8 54.933 9.567 56.5 11.5 56.5C13.433 56.5 15 54.933 15 53V36.5C15 35.3954 15.8954 34.5 17 34.5V29.5H6ZM11.5 51.5C11.2239 51.5 11 51.7239 11 52C11 52.2761 11.2239 52.5 11.5 52.5C11.7761 52.5 12 52.2761 12 52C12 51.7239 11.7761 51.5 11.5 51.5ZM9 52C9 50.6193 10.1193 49.5 11.5 49.5C12.8807 49.5 14 50.6193 14 52C14 53.3807 12.8807 54.5 11.5 54.5C10.1193 54.5 9 53.3807 9 52Z" fill="black"/>
</svg>
